<svg width="77" height="13" viewBox="0 0 77 13" fill="none" xmlns="http://www.w3.org/2000/svg">
<rect width="73" height="13" rx="6.5" fill="white" fill-opacity="0.8"/>
<path d="M18.176 7.4C18.176 7.89067 17.9733 8.29333 17.568 8.608C17.168 8.91733 16.6907 9.072 16.136 9.072C15.8267 9.072 15.52 9.01867 15.216 8.912C14.9173 8.8 14.672 8.63733 14.48 8.424V7.376H14.872L15.216 8.424C15.4827 8.65867 15.784 8.776 16.12 8.776C16.456 8.776 16.7467 8.66933 16.992 8.456C17.2427 8.23733 17.368 7.93867 17.368 7.56C17.368 7.08 17.24 6.71467 16.984 6.464C16.728 6.21333 16.3067 6.08267 15.72 6.072V5.776C16.7333 5.75467 17.24 5.28267 17.24 4.36C17.24 4.00267 17.1333 3.72267 16.92 3.52C16.712 3.31733 16.4453 3.216 16.12 3.216C15.7947 3.216 15.512 3.376 15.272 3.696L14.928 4.648H14.52V3.696C14.8613 3.184 15.3867 2.928 16.096 2.928C16.624 2.928 17.0827 3.06933 17.472 3.352C17.8667 3.63467 18.064 4.01067 18.064 4.48C18.064 4.864 17.9173 5.19733 17.624 5.48C17.336 5.76267 16.92 5.90933 16.376 5.92C16.9467 5.92 17.3893 6.06667 17.704 6.36C18.0187 6.65333 18.176 7 18.176 7.4ZM22.8501 9H21.4421V8.192C21.1915 8.77867 20.7515 9.072 20.1221 9.072C19.7008 9.072 19.3808 8.98133 19.1621 8.8C18.9435 8.61333 18.8341 8.35467 18.8341 8.024C18.8341 7.55467 19.0395 7.21867 19.4501 7.016C19.8661 6.808 20.5248 6.696 21.4261 6.68V6.336C21.4261 5.95733 21.3488 5.70133 21.1941 5.568C21.0395 5.42933 20.8101 5.36 20.5061 5.36C20.2021 5.36 19.9381 5.42933 19.7141 5.568L19.4501 6.36H19.1541V5.456C19.2875 5.344 19.4715 5.25067 19.7061 5.176C19.9408 5.096 20.1968 5.056 20.4741 5.056C21.0395 5.056 21.4635 5.16533 21.7461 5.384C22.0341 5.59733 22.1781 5.97867 22.1781 6.528V8.52L22.8501 8.704V9ZM20.3301 8.736C20.6715 8.736 20.9381 8.60533 21.1301 8.344C21.3275 8.07733 21.4261 7.616 21.4261 6.96C20.5088 6.96 19.9488 7.10133 19.7461 7.384C19.6501 7.51733 19.6021 7.71467 19.6021 7.976C19.6021 8.23733 19.6581 8.42933 19.7701 8.552C19.8875 8.67467 20.0741 8.736 20.3301 8.736ZM25.9695 9V8.704L26.5295 8.528V5.416H24.6255V8.528L25.2015 8.704V9H23.2495V8.704L23.8655 8.536V5.592L23.2495 5.416V5.128H27.9215V5.416L27.2895 5.592V8.536L27.9215 8.704V9H25.9695ZM31.3144 9V8.704L31.8984 8.528V5.704L29.9064 9H28.5544V8.704L29.1704 8.536V5.592L28.5544 5.416V5.12H30.5384V5.416L29.9224 5.6V8.416L31.8984 5.12H33.3064V5.416L32.6504 5.592V8.528L33.3064 8.704V9H31.3144ZM37.105 7.752V8.696C36.8223 8.952 36.3903 9.08 35.809 9.08C35.2277 9.08 34.7503 8.904 34.377 8.552C34.009 8.2 33.825 7.70933 33.825 7.08C33.825 6.45067 34.0143 5.95467 34.393 5.592C34.777 5.224 35.265 5.04 35.857 5.04C36.1023 5.04 36.3397 5.072 36.569 5.136C36.7983 5.19467 36.9717 5.27733 37.089 5.384V6.376H36.793L36.529 5.504C36.3797 5.392 36.1317 5.336 35.785 5.336C35.4383 5.336 35.161 5.48533 34.953 5.784C34.7503 6.08267 34.649 6.51733 34.649 7.088C34.649 8.21333 35.0597 8.776 35.881 8.776C36.153 8.776 36.369 8.73867 36.529 8.664L36.809 7.752H37.105ZM41.7173 9H40.3093V8.192C40.0586 8.77867 39.6186 9.072 38.9893 9.072C38.568 9.072 38.248 8.98133 38.0293 8.8C37.8106 8.61333 37.7013 8.35467 37.7013 8.024C37.7013 7.55467 37.9066 7.21867 38.3173 7.016C38.7333 6.808 39.392 6.696 40.2933 6.68V6.336C40.2933 5.95733 40.216 5.70133 40.0613 5.568C39.9066 5.42933 39.6773 5.36 39.3733 5.36C39.0693 5.36 38.8053 5.42933 38.5813 5.568L38.3173 6.36H38.0213V5.456C38.1546 5.344 38.3386 5.25067 38.5733 5.176C38.808 5.096 39.064 5.056 39.3413 5.056C39.9066 5.056 40.3306 5.16533 40.6133 5.384C40.9013 5.59733 41.0453 5.97867 41.0453 6.528V8.52L41.7173 8.704V9ZM39.1973 8.736C39.5386 8.736 39.8053 8.60533 39.9973 8.344C40.1946 8.07733 40.2933 7.616 40.2933 6.96C39.376 6.96 38.816 7.10133 38.6133 7.384C38.5173 7.51733 38.4693 7.71467 38.4693 7.976C38.4693 8.23733 38.5253 8.42933 38.6373 8.552C38.7546 8.67467 38.9413 8.736 39.1973 8.736ZM42.8367 9V8.704L43.4767 8.528V5.44H42.4287L42.2287 6.176H41.9327V5.152H45.7727V6.176H45.4767L45.2767 5.44H44.2287V8.536L44.8687 8.704V9H42.8367ZM46.1864 5.152H48.2184V5.448L47.5304 5.64V6.928H48.7784C49.0984 6.928 49.3464 7.032 49.5224 7.24C49.6984 7.44267 49.7864 7.68533 49.7864 7.968C49.7864 8.25067 49.6984 8.49333 49.5224 8.696C49.3464 8.89867 49.0984 9 48.7784 9H46.1864V8.704L46.7704 8.544V5.616L46.1864 5.448V5.152ZM48.3144 7.216H47.5304V8.712H48.3144C48.5438 8.712 48.7198 8.64 48.8424 8.496C48.9704 8.34667 49.0344 8.17067 49.0344 7.968C49.0344 7.76533 48.9704 7.58933 48.8424 7.44C48.7144 7.29067 48.5384 7.216 48.3144 7.216ZM53.3863 7.752V8.696C53.1036 8.952 52.6716 9.08 52.0903 9.08C51.5089 9.08 51.0316 8.904 50.6583 8.552C50.2903 8.2 50.1063 7.70933 50.1063 7.08C50.1063 6.45067 50.2956 5.95467 50.6743 5.592C51.0583 5.224 51.5463 5.04 52.1383 5.04C52.3836 5.04 52.6209 5.072 52.8503 5.136C53.0796 5.19467 53.2529 5.27733 53.3703 5.384V6.376H53.0743L52.8103 5.504C52.6609 5.392 52.4129 5.336 52.0663 5.336C51.7196 5.336 51.4423 5.48533 51.2343 5.784C51.0316 6.08267 50.9303 6.51733 50.9303 7.088C50.9303 8.21333 51.3409 8.776 52.1623 8.776C52.4343 8.776 52.6503 8.73867 52.8103 8.664L53.0903 7.752H53.3863ZM57.9426 9H55.9826V8.704L56.5986 8.512V7.224H56.4546L55.1186 9H53.9586V8.704L54.6866 8.512L55.8146 7.224H55.3906C55.0972 7.224 54.8546 7.12 54.6626 6.912C54.4759 6.69867 54.3826 6.456 54.3826 6.184C54.3826 5.912 54.4759 5.672 54.6626 5.464C54.8546 5.256 55.0972 5.152 55.3906 5.152H57.9426V5.448L57.3586 5.608V8.536L57.9426 8.704V9ZM55.8546 6.936H56.5986V5.44H55.8546C55.6519 5.44 55.4812 5.51467 55.3426 5.664C55.2039 5.81333 55.1346 5.98667 55.1346 6.184C55.1346 6.38133 55.2039 6.55733 55.3426 6.712C55.4812 6.86133 55.6519 6.936 55.8546 6.936Z" fill="black"/>
</svg>
